<svg id="Calque_1" xmlns="http://www.w3.org/2000/svg" viewBox="0 0 268.5 219.1"><style>.st0{fill:#27348b}</style><g id="Groupe_93" transform="translate(16.317 63.945)"><path id="Tracé_104" class="st0" d="M26.7 108.4c-.2-6.7 5.1-12.2 11.7-12.3h.5c3.5-.1 6.9 1.2 9.3 3.7l-2.7 3.1c-1.7-1.8-4.2-2.9-6.7-2.9-4.4.1-7.9 3.7-7.8 8.1V108.4c-.2 4.4 3.2 8.2 7.6 8.4h.3c2.6 0 5.1-1.1 6.8-3l2.7 2.7c-2.4 2.8-5.9 4.3-9.6 4.2-6.6.1-12-5.2-12.1-11.7v-.6"/></g><path id="Tracé_105" class="st0" d="M73.1 160.4h4.2v9.9h11.3v-9.9h4.2v23.7h-4.2v-10H77.2v10H73v-23.7z"/><path id="Tracé_106" class="st0" d="M117.2 174.7l-4.1-9.5-4.1 9.5h8.2zm-6-21h3.9l4.1 4.6h-3.5l-2.6-1.9-2.6 1.9h-3.4l4.1-4.6zm0 6.5h3.9l10.4 23.9h-4.4l-2.4-5.7h-11.2l-2.4 5.7h-4.3l10.4-23.9z"/><path id="Tracé_107" class="st0" d="M138.2 164.3h-7.6v-3.9h19.3v3.9h-7.6v19.9h-4.2v-19.9z"/><path id="Tracé_108" class="st0" d="M158.2 160.4h17.6v3.7h-13.4v6.2h11.9v3.8h-11.9v6.3H176v3.7h-17.8v-23.7z"/><path id="Tracé_109" class="st0" d="M199.2 174.7l-4.1-9.5-4.1 9.5h8.2zm-5.9-14.5h3.9l10.4 23.9h-4.4l-2.4-5.7h-11.2l-2.4 5.7h-4.3l10.4-23.9z"/><path id="Tracé_110" class="st0" d="M214.5 174.1v-13.7h4.2v13.5c0 4.4 2.3 6.7 6 6.7s6-2.2 6-6.6v-13.7h4.2v13.5c0 7.1-4 10.6-10.2 10.6-6.3.1-10.2-3.4-10.2-10.3"/><path id="Tracé_111" class="st0" d="M259.7 160.4l-6 8.6-5.9-8.6H243l8.2 11.7-8.6 12.1h4.8l6.2-9.1 6.3 9.1h4.9l-8.6-12.1 8.3-11.6-4.8-.1z"/><path id="Tracé_112" class="st0" d="M27.7 123.3v16.1h4.7c4.3.3 7.9-2.9 8.2-7.2v-.9c.2-4.3-3.2-7.9-7.5-8.1h-.8l-4.6.1zm-4.1-3.8h8.9c6.5-.4 12.2 4.5 12.6 11v.9c0 6.6-5.3 11.9-11.9 11.9h-9.6v-23.8z"/><path id="Tracé_113" class="st0" d="M54.7 119.5h17.6v3.7H58.8v6.2h11.9v3.8H58.8v6.3h13.6v3.7H54.7v-23.7z"/><path id="Tracé_114" class="st0" d="M82 119.5h4.4l7.2 11.2 7.2-11.2h4.4v23.7H101v-17l-7.5 11.2h-.1L86 126.3v16.9h-4v-23.7z"/><path id="Tracé_115" class="st0" d="M116 119.5h17.6v3.7h-13.4v6.2H132v3.8h-11.9v6.3h13.6v3.7H116v-23.7z"/><g id="Groupe_94" transform="translate(57.415 47.271)"><path id="Tracé_116" class="st0" d="M85.5 85.9V72.2h4.2v13.5c0 4.4 2.3 6.7 6 6.7s6-2.2 6-6.6V72.2h4.2v13.5c0 7.1-4 10.6-10.2 10.6s-10.2-3.5-10.2-10.4"/><path id="Tracé_117" class="st0" d="M126.4 84c3 0 4.9-1.6 4.9-4 0-2.5-1.8-3.9-4.9-3.9h-6.1v8l6.1-.1zm-10.3-11.8h10.6c2.5-.1 5 .7 6.8 2.4 1.3 1.4 2 3.2 2 5.1v.1c.1 3.4-2.3 6.5-5.6 7.2l6.4 9h-4.9l-5.8-8.3h-5.2V96h-4.2l-.1-23.8z"/></g><path id="Tracé_118" class="st0" d="M202.6 119.5h17.6v3.7h-13.4v6.2h11.9v3.8h-11.9v6.3h13.6v3.7h-17.8v-23.7z"/><g id="Groupe_95" transform="translate(0 47.136)"><path id="Tracé_119" class="st0" d="M228.3 92.6l2.5-3c2 1.9 4.7 3 7.5 3.1 2.6 0 4.2-1.2 4.2-3v-.1c0-1.7-1-2.6-5.3-3.6-5.1-1.2-7.9-2.7-7.9-7.1v-.1c0-4.1 3.4-6.9 8.1-6.9 3.1-.1 6.2 1 8.6 3l-2.2 3.2c-1.8-1.5-4.1-2.4-6.4-2.4-2.4 0-3.9 1.3-3.9 2.8v.1c0 1.8 1.1 2.6 5.7 3.7 5 1.2 7.6 3 7.6 7v.1c0 4.4-3.5 7.1-8.5 7.1-3.7 0-7.3-1.4-10-3.9"/><path id="Tracé_120" class="st0" d="M15.9 118.8c.1-1.5-1-2.7-2.4-2.7h-.2c-1.5-.1-2.8 1.1-2.8 2.6V119c.1 1.4.7 2.6 1.8 3.5 2.3-.8 3.6-2 3.6-3.7m.2 13l-5.3-5.4c-1.8.5-3 2.1-3.2 3.9v.1c.1 2 1.8 3.5 3.8 3.5h.2c1.7-.2 3.3-.9 4.5-2.1m2.3 2.4c-1.9 1.9-4.5 3-7.2 3.1-4.4 0-7.8-2.7-7.8-6.8v-.1c.1-3.1 2.1-5.7 5.1-6.6-1.2-1.4-1.9-3.1-2-4.9v-.1c.1-3.4 3-6.1 6.4-6h.4c3.2-.3 6 2.2 6.3 5.4v.5c0 3.1-2.1 5-5.2 6.2l4.1 4.1c.9-1.5 1.8-3 2.5-4.6l3.2 1.7c-.9 1.9-2 3.7-3.2 5.4l3.8 3.8-3.1 2.2-3.3-3.3z"/></g><path id="Tracé_121" class="st0" d="M142.2 66.4h-14.9V53.1H93.2v25.6L134.8 96l41.6-17.5V53.1h-34.2v13.3z"/><path id="Tracé_122" class="st0" d="M158.4 4.6v11.1h-14.6V4.6h-18v11.1h-14.6V4.6h-18v40h34.2v-7.9c0-3 3.3-5.4 7.4-5.4 4.1 0 7.4 2.4 7.4 5.4v7.9h34.2v-40h-18z"/><path class="st0" d="M103.8 201.8v11.9h-1.7v-5.3h-6.8v5.3h-1.7v-11.9h1.7v5.1h6.8v-5.1h1.7zM109.5 207.7c0-3.5 2.7-6.1 6.3-6.1 3.6 0 6.3 2.6 6.3 6.1 0 3.5-2.7 6.1-6.3 6.1-3.6 0-6.3-2.6-6.3-6.1zm11 0c0-2.6-2-4.6-4.6-4.6-2.7 0-4.6 1.9-4.6 4.6s2 4.6 4.6 4.6c2.6 0 4.6-1.9 4.6-4.6zM130.1 203.3H126v-1.5h9.8v1.5h-4.1v10.4H130v-10.4zM149.4 212.2v1.5h-8.6v-11.9h8.4v1.5h-6.7v3.7h6v1.4h-6v3.8h6.9zM155.3 201.8h1.7v10.4h6.4v1.5h-8.1v-11.9zM167.3 212.3l.6-1.3c.9.8 2.4 1.4 3.9 1.4 2.1 0 2.9-.8 2.9-1.8 0-2.9-7.2-1.1-7.2-5.5 0-1.8 1.4-3.4 4.6-3.4 1.4 0 2.8.4 3.8 1.1l-.6 1.4c-1-.7-2.2-1-3.3-1-2 0-2.9.8-2.9 1.9 0 2.9 7.2 1.1 7.2 5.5 0 1.8-1.5 3.4-4.6 3.4-1.7-.2-3.4-.8-4.4-1.7z"/></svg>