<svg xmlns="http://www.w3.org/2000/svg" width="362.776" height="80.678" viewBox="0 0 362.776 80.678"><path data-name="Tracé 1" d="M142.828 40.244v2.093c-.038 2.278 0 4.556-.114 6.872a5.884 5.884 0 0 1-3.265 5.125 14.283 14.283 0 0 1-6.227 1.703c-6.568.342-13.478-3.113-15.148-11.314a37.555 37.555 0 0 1-.721-5.049 32.189 32.189 0 0 1 1.369-12.604 12.17 12.17 0 0 1 5.2-6.606 17.491 17.491 0 0 1 18.945.873c.873.683 1.671 1.443 2.582 2.2.342-.3.607-.569 1.1-1.025-1.215-.949-2.278-1.86-3.455-2.658a19.929 19.929 0 0 0-10.744-3.037c-5.505-.152-10.517 1.253-14.655 5.125-5.619 5.277-8.239 11.731-7.1 19.4 1.253 8.2 6.53 13.174 14.047 15.794 4.556 1.595 9.226 1.177 13.858.114a19.916 19.916 0 0 0 8.277-3.948 7.986 7.986 0 0 0 3.113-6.53v-5.427a9.234 9.234 0 0 0-.19-1.177h-5.315a11.77 11.77 0 0 0-1.557.076z" fill="#fff"/><path data-name="Tracé 2" d="M234.515 57.215c-.949-.038-1.633 0-2.278-.076a29.5 29.5 0 0 1-4.1-.494 13.924 13.924 0 0 1-9.867-13.055 728.435 728.435 0 0 1-.076-9.074V1.974c0-.607-.076-1.215-.076-1.784h-6.568c-.038.456-.076.835-.076 1.215v38.118a18.286 18.286 0 0 0 9.947 16.591c3.911 2.088 8.162 2.126 12.453 1.9.148-.04.296-.381.641-.799z" fill="#fff"/><path data-name="Tracé 3" d="M290.326 32.271a13.2 13.2 0 0 0-12.909-15.3 18.426 18.426 0 0 0-11.086 3.419 21.529 21.529 0 0 0-5.049 31.132c4.024 5.087 9.378 7.024 15.718 6.037 6.8-1.063 11.921-4.822 15.946-10.213.456-.607.873-1.291 1.291-1.974-1.1-.569-1.442.19-1.9.759-3.379 4.138-7.593 6.834-13.022 7.176a17.555 17.555 0 0 1-18.451-15.227 14.133 14.133 0 0 1 .19-5.771c9.759-.038 19.477-.038 29.272-.038z" fill="#fff"/><path data-name="Tracé 4" d="M160.406 16.895c-.038.38-.114.607-.114.8 0 7.4-.076 14.807.038 22.172a17.079 17.079 0 0 0 6.492 13.363c5.771 4.746 12.377 5.809 19.515 4.024 7.973-2.012 14.883-8.352 14.655-18.907-.152-6.492-.038-12.984-.038-19.477v-1.291c-.038-.759-.456-.873-1.215-.494V38.23a19.034 19.034 0 0 1-.152 2.544 16.357 16.357 0 0 1-30.031 7.1 17.293 17.293 0 0 1-2.544-9.719c-.038-6.492-.038-12.984-.038-19.477v-1.783z" fill="#fff"/><path data-name="Tracé 5" d="M60.366 57.974v-1.75c0-6.8-.076-13.63 0-20.426a16.363 16.363 0 0 1 21.109-15.642 15.559 15.559 0 0 1 11.238 12.3 30.282 30.282 0 0 1 .418 5.885c.038 5.961 0 11.921.038 17.882 0 .569.038 1.139.076 1.746h6.492V35.612c0-7.441-3.569-12.757-9.909-16.287a21.117 21.117 0 0 0-14.883-1.974c-9.074 1.9-16.1 8.618-15.87 19.249.152 6.53.038 13.1.038 19.628v1.784c.456-.038.759-.038 1.253-.038z" fill="#fff"/><path data-name="Tracé 6" d="M26.007 21.907a7.07 7.07 0 0 0-2.088-3.417 8.821 8.821 0 0 0-11.769-.114 8.65 8.65 0 0 0-1.671 11.618 13.7 13.7 0 0 0 4.062 3.759c1.595 1.025 3.265 2.012 4.9 3a16.779 16.779 0 0 1 4.591 3.906 9.78 9.78 0 0 1-3.645 14.845 12.6 12.6 0 0 1-7.821.8c-5.657-1.1-9.112-4.67-11.01-9.985-.19-.494-.266-1.025-.418-1.519-.189-.607-.569-.683-1.138-.341a7.087 7.087 0 0 0 .152.949A16.56 16.56 0 0 0 15.49 58.544c6.226.418 11.39-1.822 14.883-7.176a11.918 11.918 0 0 0-1.936-15.528 38.883 38.883 0 0 0-5.581-3.948c-1.9-1.177-3.948-2.088-5.847-3.265a12.647 12.647 0 0 1-3.265-2.734c-2.012-2.392-1.443-5.239 1.139-7.024 2.847-1.936 7.935-1.86 9.985 2.392.19.532.341 1.025 1.139.646z" fill="#fff"/><path data-name="Tracé 7" d="M330.342 44.497c.266.987.456 1.9.759 2.809 4.4 12.6 20.046 14.807 27.943 6.454a12.551 12.551 0 0 0 3.265-12.377 12.206 12.206 0 0 0-5.125-6.91c-1.936-1.367-4.062-2.506-6.113-3.721-1.594-.949-3.265-1.822-4.822-2.809a7.3 7.3 0 0 1-2.7-2.885 4.262 4.262 0 0 1 .265-4.67c2.43-3.417 8.163-3.569 10.707-.266a9.9 9.9 0 0 1 .873 1.519c.266.456.569.607 1.025.266a7.2 7.2 0 0 0-2.164-3.455 8.781 8.781 0 0 0-11.769.076 8.64 8.64 0 0 0-1.481 11.656 13.547 13.547 0 0 0 3.987 3.645c1.557 1.025 3.227 1.86 4.746 2.923a24.208 24.208 0 0 1 4.328 3.493 9.716 9.716 0 0 1-4.968 15.944 13.7 13.7 0 0 1-15.376-6.34 28.265 28.265 0 0 1-1.975-4.67c-.305-.531-.38-1.024-1.405-.682z" fill="#fff"/><path data-name="Tracé 8" d="M303.728 17.507V58.05h6.113v-1.936c0-9.074.038-18.186-.038-27.26a4.728 4.728 0 0 1 1.4-3.721 20.044 20.044 0 0 1 2.847-2.544 17.8 17.8 0 0 1 16.591-1.746c.494.19.949.38 1.557.607v-4.1c-8.732-1.367-16.249.645-22.362 7.707 0-1.595.038-2.772 0-3.948a10.522 10.522 0 0 0-.228-3.607z" fill="#fff"/><path data-name="Tracé 9" d="M48.445 58.009v-41h-5.923v41z" fill="#fff"/><path data-name="Tracé 10" d="M240.21 16.971c-.342 2.847-.19 39.94.152 41.117h5.087a4.635 4.635 0 0 0 .645-.114v-41z" fill="#fff"/><path data-name="Tracé 11" d="M239.376 70.997a3.856 3.856 0 0 0 3.8 3.91 3.873 3.873 0 1 0-3.8-3.91z" fill="#fff"/><path data-name="Tracé 12" d="M49.318 3.839a3.809 3.809 0 0 0-3.91-3.8 3.913 3.913 0 0 0-3.835 3.91 3.891 3.891 0 0 0 3.948 3.8 3.809 3.809 0 0 0 3.797-3.91z" fill="#fff"/><path data-name="Tracé 13" d="M315.042 75.818a4.5 4.5 0 1 0 9-.038 4.5 4.5 0 1 0-9 .038z" fill="#fff"/><path data-name="Tracé 14" d="M309.352 76.121v4.175c.494-.114.835-.3.835-.532.038-2.7.038-5.429-.038-8.125 0-.152-.38-.3-.873-.645v4.328a40.068 40.068 0 0 1-4.822-.076c-.418-1.4.114-2.772-.493-4.252-.266.38-.532.532-.532.721-.038 2.7 0 5.429 0 8.125 0 .152.3.342.722.8.076-1.746.152-3.113.228-4.556 1.703.037 3.184.037 4.973.037z" fill="#fff"/><path data-name="Tracé 15" d="M338.846 71.3v8.922c2.468.38 3.873.266 4.784-.494-1.443-.076-2.657-.114-3.872-.19v-3.151c1.1-.57 2.354.19 3.607-.911-1.443-.076-2.582-.114-3.645-.19v-3.3c.721 0 1.367.038 1.974 0 .569-.076 1.329.3 1.784-.683z" fill="#fff"/><path data-name="Tracé 16" d="M362.461 73.198c-.342-1.519-1.1-2.05-2.847-2.012a2.561 2.561 0 0 0-2.734 1.936c-.266 1.4.342 2.278 1.937 2.809a19.334 19.334 0 0 1 2.088.721 1.235 1.235 0 0 1 .8 1.557 2.583 2.583 0 0 1-.987 1.291 2.2 2.2 0 0 1-2.809-.759c-.228-.342-.342-.8-1.1-.494a3.562 3.562 0 0 0 .38 1.063 3.39 3.39 0 0 0 4.935.228 2.43 2.43 0 0 0 .531-1.139 2.131 2.131 0 0 0-1.556-2.62c-.8-.3-1.633-.494-2.392-.8a1.428 1.428 0 0 1-.911-1.519 1.451 1.451 0 0 1 1.139-1.367 2.059 2.059 0 0 1 2.43.645c.299.27.489.878 1.096.46z" fill="#fff"/><path data-name="Tracé 17" d="M334.291 71.49a15.272 15.272 0 0 0-6.075.076c.646.873 1.747.076 2.544.8v2.582c0 .949-.038 1.9 0 2.847.076.835-.3 1.746.3 2.544.19-.076.38-.076.38-.114.114-2.7.227-5.353.3-8.011.766-.495 1.753.149 2.551-.724z" fill="#fff"/><path data-name="Tracé 18" d="M352.476 80.186v-.5c-1.025-.076-2.012-.114-3.075-.19-.3-2.809.076-5.543-.228-8.315-.342.114-.57.152-.607.228a69.32 69.32 0 0 0-.076 8.884 12.6 12.6 0 0 0 3.986-.107z" fill="#fff"/><path data-name="Tracé 19" d="M142.828 40.244c.646-.038 1.063-.114 1.481-.114h5.315a8.3 8.3 0 0 1 .19 1.177v5.429a8.093 8.093 0 0 1-3.113 6.53 19.253 19.253 0 0 1-8.277 3.948c-4.632 1.063-9.3 1.481-13.858-.114-7.555-2.658-12.833-7.593-14.047-15.794-1.177-7.669 1.443-14.123 7.1-19.4 4.138-3.873 9.15-5.239 14.655-5.125a19.929 19.929 0 0 1 10.744 3.037c1.177.759 2.24 1.708 3.455 2.658-.456.456-.759.721-1.1 1.025-.873-.759-1.708-1.519-2.582-2.2a17.414 17.414 0 0 0-18.945-.873 11.838 11.838 0 0 0-5.2 6.606 33.67 33.67 0 0 0-1.367 12.6 37.613 37.613 0 0 0 .721 5.049c1.671 8.163 8.58 11.656 15.148 11.314a14.282 14.282 0 0 0 6.223-1.705 5.814 5.814 0 0 0 3.265-5.125c.114-2.278.076-4.556.114-6.872a16.894 16.894 0 0 0 .078-2.051z"/><path data-name="Tracé 20" d="M234.515 57.215c-.38.456-.493.759-.645.759-4.29.19-8.5.152-12.453-1.9a18.306 18.306 0 0 1-8.5-9.15 18.693 18.693 0 0 1-1.447-7.439V1.367c0-.38.038-.721.076-1.215h6.568c.038.569.076 1.177.076 1.784v32.537c0 3.037 0 6.075.076 9.074a13.924 13.924 0 0 0 9.871 13.06 24.7 24.7 0 0 0 4.1.494c.684.076 1.333.076 2.278.114z"/><path data-name="Tracé 21" d="M290.326 32.271h-29.31a13.525 13.525 0 0 0-.19 5.771 17.531 17.531 0 0 0 18.449 15.224c5.429-.342 9.643-3.075 13.022-7.176.456-.57.835-1.329 1.9-.759-.456.683-.835 1.329-1.291 1.974-4.024 5.391-9.188 9.15-15.946 10.213-6.34.987-11.656-.949-15.718-6.037a21.529 21.529 0 0 1 5.051-31.129 18.5 18.5 0 0 1 11.082-3.419 13.255 13.255 0 0 1 12.951 15.338zm-6.037-1.253c1.443-4.442-1.784-10.82-7.1-12.187a11 11 0 0 0-9.112 1.784 16.218 16.218 0 0 0-6 7.859c-.3.759-.532 1.595-.835 2.544z"/><path data-name="Tracé 22" d="M160.406 16.895h6.53v1.785c0 6.492 0 12.984.038 19.477a17.521 17.521 0 0 0 2.544 9.719 16.357 16.357 0 0 0 30.031-7.1c.076-.835.152-1.708.152-2.544V17.085c.759-.38 1.177-.266 1.215.494.038.418 0 .835 0 1.291 0 6.492-.114 12.984.038 19.477.266 10.555-6.682 16.933-14.655 18.907-7.137 1.784-13.744.721-19.514-4.024a17.138 17.138 0 0 1-6.49-13.365c-.114-7.4-.038-14.807-.038-22.172a2.655 2.655 0 0 0 .149-.798z"/><path data-name="Tracé 23" d="M60.366 57.974h-1.253v-1.788c0-6.53.114-13.1-.038-19.628-.228-10.63 6.758-17.35 15.87-19.249a21.117 21.117 0 0 1 14.883 1.977c6.34 3.531 9.909 8.846 9.909 16.287v22.363h-6.493c-.038-.607-.076-1.177-.076-1.746 0-5.961.038-11.921-.038-17.882a27.572 27.572 0 0 0-.418-5.885A15.563 15.563 0 0 0 81.474 20.16a16.351 16.351 0 0 0-21.109 15.642c-.076 6.8 0 13.63 0 20.426z"/><path data-name="Tracé 24" d="M26.007 21.906c-.8.342-.949-.114-1.139-.569-2.088-4.252-7.176-4.328-9.985-2.392-2.582 1.784-3.113 4.594-1.139 7.024a15.055 15.055 0 0 0 3.265 2.734c1.9 1.177 3.948 2.088 5.847 3.265a38.883 38.883 0 0 1 5.581 3.948 11.918 11.918 0 0 1 1.936 15.528c-3.493 5.353-8.656 7.593-14.883 7.176A16.6 16.6 0 0 1 .152 45.481c-.076-.3-.076-.607-.152-.949.569-.3.949-.228 1.139.342.152.494.266 1.025.418 1.519 1.9 5.277 5.353 8.884 11.01 9.985a12.624 12.624 0 0 0 7.821-.8 9.8 9.8 0 0 0 3.645-14.845 16.78 16.78 0 0 0-4.594-3.91c-1.633-1.025-3.265-1.974-4.9-3a14.212 14.212 0 0 1-4.062-3.759 8.611 8.611 0 0 1 1.672-11.613 8.737 8.737 0 0 1 11.769.114 7.111 7.111 0 0 1 2.089 3.341z"/><path data-name="Tracé 25" d="M330.342 44.497c1.025-.342 1.139.152 1.329.683a28.237 28.237 0 0 0 1.974 4.67 13.7 13.7 0 0 0 15.377 6.339 9.73 9.73 0 0 0 4.973-15.946 24.21 24.21 0 0 0-4.328-3.493c-1.519-1.063-3.189-1.936-4.746-2.923a14.028 14.028 0 0 1-3.987-3.645 8.64 8.64 0 0 1 1.481-11.656 8.781 8.781 0 0 1 11.769-.076 7.194 7.194 0 0 1 2.164 3.455c-.456.342-.759.19-1.025-.266a12.122 12.122 0 0 0-.873-1.519 6.948 6.948 0 0 0-10.708.269 4.264 4.264 0 0 0-.266 4.67 7.3 7.3 0 0 0 2.7 2.885c1.594.987 3.227 1.86 4.822 2.809 2.05 1.215 4.176 2.354 6.112 3.721a12.085 12.085 0 0 1 5.126 6.91 12.574 12.574 0 0 1-3.265 12.377c-7.9 8.352-23.539 6.151-27.943-6.454-.23-.912-.42-1.823-.686-2.81z"/><path data-name="Tracé 26" d="M303.728 17.502h5.885c.456 1.177.152 2.392.228 3.607.038 1.177 0 2.316 0 3.948 6.112-7.1 13.629-9.112 22.362-7.745v4.1c-.569-.228-1.063-.418-1.557-.607a17.9 17.9 0 0 0-16.591 1.746 20.043 20.043 0 0 0-2.847 2.544 4.778 4.778 0 0 0-1.4 3.721c.076 9.074.038 18.186.038 27.26v1.936h-6.118z"/><path data-name="Tracé 27" d="M48.445 58.009h-5.923v-41h5.923z"/><path data-name="Tracé 28" d="M240.21 16.971h5.847v41a5.883 5.883 0 0 1-.646.114h-5.087c-.304-1.174-.422-38.267-.114-41.114z"/><path data-name="Tracé 29" d="M239.376 70.997a3.835 3.835 0 1 1 3.8 3.91 3.809 3.809 0 0 1-3.8-3.91z"/><path data-name="Tracé 30" d="M49.318 3.835a3.754 3.754 0 0 1-3.8 3.873 3.891 3.891 0 0 1-3.948-3.8A3.913 3.913 0 0 1 45.408 0a3.865 3.865 0 0 1 3.91 3.835z"/><path data-name="Tracé 31" d="M315.041 75.818a4.482 4.482 0 1 1 8.96-.038 4.483 4.483 0 1 1-8.96.038zm.911.038a3.462 3.462 0 0 0 3.607 3.8 3.568 3.568 0 0 0 3.531-3.873 3.616 3.616 0 0 0-3.607-3.835c-2.088-.003-3.531 1.63-3.531 3.908z"/><path data-name="Tracé 32" d="M309.346 76.121h-4.976c-.076 1.4-.114 2.81-.228 4.556-.417-.455-.721-.607-.721-.8-.038-2.7-.038-5.429 0-8.125 0-.19.266-.342.531-.721.608 1.481.076 2.809.494 4.252a39.778 39.778 0 0 0 4.822.076v-4.325c.493.342.873.494.873.645.038 2.7.038 5.429.038 8.125 0 .19-.342.418-.835.532z"/><path data-name="Tracé 33" d="M338.846 71.3h4.67c-.455.987-1.215.607-1.784.683a17.1 17.1 0 0 1-1.974 0v3.3c1.063.038 2.164.114 3.645.19-1.253 1.1-2.506.342-3.607.911v3.151c1.215.076 2.43.114 3.873.19-.911.759-2.316.873-4.784.494-.039-2.919-.039-5.844-.039-8.919z"/><path data-name="Tracé 34" d="M362.461 73.198c-.645.418-.8-.19-1.1-.494a2.128 2.128 0 0 0-2.43-.645 1.542 1.542 0 0 0-1.139 1.367 1.428 1.428 0 0 0 .911 1.519c.8.3 1.633.494 2.392.8a2.144 2.144 0 0 1 1.556 2.62 2.43 2.43 0 0 1-.531 1.139 3.39 3.39 0 0 1-4.935-.228 5.054 5.054 0 0 1-.38-1.063c.759-.3.835.19 1.1.494a2.153 2.153 0 0 0 2.809.759 2.261 2.261 0 0 0 .987-1.291 1.267 1.267 0 0 0-.8-1.557c-.683-.3-1.4-.456-2.088-.721-1.595-.532-2.2-1.4-1.937-2.81a2.561 2.561 0 0 1 2.734-1.936c1.75-.003 2.509.529 2.851 2.047z"/><path data-name="Tracé 35" d="M334.291 71.49c-.8.873-1.784.228-2.544.721-.114 2.658-.19 5.315-.3 8.011 0 .038-.19.076-.38.114-.607-.759-.228-1.708-.3-2.544-.076-.949 0-1.9 0-2.847v-2.582c-.759-.721-1.9.076-2.544-.8a14.58 14.58 0 0 1 6.068-.073z"/><path data-name="Tracé 36" d="M352.476 80.186a12.6 12.6 0 0 1-3.986.114 76.829 76.829 0 0 1 .076-8.884c0-.076.266-.114.607-.228.342 2.772-.038 5.505.228 8.315 1.063.076 2.05.152 3.075.19z"/></svg>